<svg width="70" height="70" viewBox="0 0 70 70" fill="none" xmlns="http://www.w3.org/2000/svg">
<circle cx="35" cy="35" r="33.5" fill="#FFEDC0" stroke="#FFBA00" stroke-width="3"/>
<path d="M34.3036 36.1248C34.3036 36.1248 30.7965 39.539 29.4285 43.4626V44.5326H40.5715V43.4626C38.7928 39.1304 35.6964 36.1248 35.6964 36.1248H34.3036Z" fill="#181818"/>
<path d="M44.5889 24.8988V23.2139H46.186V20H23.814V23.2139H25.4121V24.8988C25.4121 27.4701 30.0286 34.4981 30.2468 35.0044C30.0326 35.5118 25.4121 42.5368 25.4121 45.1012V46.7822H23.814V50H46.186V46.7822H44.5889V45.1012C44.5889 42.5259 39.9674 35.5463 39.7236 35.0015C39.9674 34.4537 44.5889 27.4701 44.5889 24.8988ZM42.9898 45.1012V46.7822H27.0092V45.1012C27.0092 43.2504 31.906 35.9244 31.906 35.0015C31.906 34.0726 27.0092 26.7486 27.0092 24.8998V23.2139H42.9888V24.8988C42.9888 26.7476 38.0535 34.0717 38.0535 35.0005C38.0545 35.9244 42.9898 43.2504 42.9898 45.1012Z" fill="#181818"/>
</svg>
