<svg width="70" height="70" viewBox="0 0 70 70" fill="none" xmlns="http://www.w3.org/2000/svg">
<circle cx="35" cy="35" r="33.5" fill="#FFEDC0" stroke="#FFBA00" stroke-width="3"/>
<path d="M38.0305 47.3246C37.7831 47.3863 37.5309 47.441 37.2805 47.4872C36.6261 47.6088 36.1934 48.2383 36.3145 48.8933C36.3743 49.2155 36.5573 49.4839 36.8058 49.6591C37.0618 49.8394 37.3878 49.9208 37.7199 49.859C38.018 49.8037 38.3185 49.7386 38.6133 49.665C39.2596 49.5042 39.6533 48.8495 39.492 48.2036C39.3312 47.5571 38.6771 47.1637 38.0305 47.3246Z" fill="#181818"/>
<path d="M46.9489 31.1595C47.0334 31.4141 47.1946 31.622 47.3984 31.7656C47.7004 31.9783 48.0957 32.0499 48.4729 31.9252C49.1053 31.7152 49.4479 31.0333 49.2387 30.4013C49.1434 30.1131 49.0376 29.8241 48.9249 29.5427C48.6776 28.9242 47.9761 28.6231 47.3573 28.8705C46.7392 29.1178 46.4379 29.8195 46.6855 30.4381C46.7802 30.6746 46.8689 30.9174 46.9489 31.1595Z" fill="#181818"/>
<path d="M41.9493 45.6027C41.7366 45.7432 41.517 45.8791 41.2958 46.0065C40.7187 46.3394 40.521 47.0771 40.8538 47.6539C40.9441 47.8108 41.0645 47.9391 41.203 48.0371C41.5751 48.2989 42.0803 48.3381 42.501 48.0957C42.764 47.9441 43.0255 47.7827 43.2789 47.6152C43.8344 47.2482 43.9873 46.4999 43.6201 45.9441C43.2529 45.3882 42.505 45.2355 41.9493 45.6027Z" fill="#181818"/>
<path d="M49.9886 34.5279C49.9623 33.8622 49.4017 33.3441 48.7358 33.3701C48.0708 33.3964 47.5523 33.9572 47.5785 34.6226C47.5885 34.877 47.591 35.1352 47.5852 35.3894C47.5758 35.8068 47.78 36.1789 48.0973 36.4026C48.2863 36.5357 48.5157 36.6162 48.7644 36.6219C49.43 36.6367 49.9817 36.1087 49.9964 35.4427C50.0031 35.139 50.0006 34.8314 49.9886 34.5279Z" fill="#181818"/>
<path d="M46.7521 42.4301C46.2183 42.0296 45.4632 42.1384 45.0634 42.6712C44.9103 42.8752 44.7491 43.0767 44.584 43.2708C44.1526 43.7776 44.2135 44.539 44.7204 44.9708C44.7493 44.9953 44.7785 45.0178 44.8088 45.0389C45.3127 45.3942 46.0131 45.3125 46.4205 44.8344C46.6176 44.6029 46.8098 44.3622 46.9928 44.1185C47.3926 43.5857 47.2844 42.83 46.7521 42.4301Z" fill="#181818"/>
<path d="M48.5249 38.0705C47.8894 37.8712 47.2126 38.225 47.0134 38.8605C46.9372 39.1033 46.8527 39.3473 46.7615 39.5862C46.5613 40.1122 46.7531 40.6909 47.193 41.001C47.2736 41.0577 47.3625 41.1058 47.459 41.1423C48.0813 41.3797 48.7781 41.0675 49.0153 40.445C49.1235 40.1609 49.224 39.8707 49.3149 39.582C49.5138 38.9464 49.1603 38.2698 48.5249 38.0705Z" fill="#181818"/>
<path d="M32.7687 47.498C31.6904 47.3044 30.6561 46.9747 29.6753 46.5149C29.6637 46.5089 29.6533 46.502 29.6411 46.4964C29.41 46.3876 29.1793 46.2711 28.9556 46.1493C28.9548 46.1484 28.9534 46.1479 28.9522 46.1473C28.5418 45.9214 28.1414 45.6713 27.7523 45.3975C22.0791 41.4011 20.7151 33.5343 24.7117 27.8612C25.5807 26.6281 26.6324 25.5993 27.8049 24.7839C27.8193 24.7738 27.8338 24.7638 27.8481 24.7537C31.9797 21.9069 37.5897 21.7151 41.9768 24.6404L41.0345 26.0018C40.7726 26.3807 40.9337 26.6569 41.3923 26.6156L45.4852 26.2492C45.9444 26.2079 46.219 25.8107 46.0955 25.3673L44.9964 21.4073C44.8733 20.9634 44.5583 20.9103 44.2961 21.2891L43.3517 22.6538C40.1322 20.4926 36.2707 19.6685 32.4379 20.3331C32.0519 20.3999 31.6713 20.4817 31.2959 20.5768C31.293 20.5774 31.2907 20.5777 31.2883 20.5782C31.2738 20.5817 31.2591 20.5865 31.245 20.5904C27.94 21.4391 25.0564 23.3667 22.9987 26.117C22.9814 26.1376 22.9635 26.1577 22.9472 26.1801C22.8787 26.2723 22.8108 26.3666 22.7443 26.4608C22.6356 26.6153 22.5284 26.7737 22.4259 26.9321C22.4131 26.9512 22.4033 26.9706 22.392 26.9899C20.6941 29.6211 19.8751 32.663 20.0155 35.7599C20.0158 35.7701 20.0153 35.7803 20.0155 35.7908C20.0291 36.0933 20.0531 36.4 20.0857 36.7019C20.0874 36.7214 20.0917 36.7398 20.095 36.7593C20.1287 37.0629 20.1709 37.3672 20.2239 37.6715C20.762 40.7758 22.2264 43.5693 24.4207 45.7429C24.4258 45.748 24.4311 45.7535 24.4363 45.7588C24.4381 45.7608 24.4401 45.7618 24.4418 45.7637C25.0314 46.3452 25.6726 46.883 26.3631 47.3693C28.1701 48.6426 30.1822 49.4842 32.3431 49.872C32.9987 49.9898 33.625 49.5534 33.7426 48.898C33.8602 48.2422 33.4241 47.6154 32.7687 47.498Z" fill="#181818"/>
<path d="M34.26 25.3653C33.7207 25.3653 33.2839 25.8025 33.2839 26.3411V36.0625L42.1749 40.6587C42.318 40.7328 42.4712 40.7676 42.622 40.7676C42.9751 40.7676 43.3162 40.5753 43.4896 40.2398C43.7369 39.7609 43.5498 39.1726 43.0709 38.9253L35.2351 34.8742V26.3411C35.235 25.8025 34.7987 25.3653 34.26 25.3653Z" fill="#181818"/>
</svg>
