<svg width="237" height="236" viewBox="0 0 237 236" fill="none" xmlns="http://www.w3.org/2000/svg">
<path d="M236.163 117.663C236.163 182.646 183.483 235.325 118.5 235.325C53.5167 235.325 0.837402 182.646 0.837402 117.663C0.837402 52.6793 53.5167 0 118.5 0C183.483 0 236.163 52.6793 236.163 117.663ZM60.1886 117.663C60.1886 149.867 86.2955 175.974 118.5 175.974C150.704 175.974 176.811 149.867 176.811 117.663C176.811 85.4581 150.704 59.3512 118.5 59.3512C86.2955 59.3512 60.1886 85.4581 60.1886 117.663Z" fill="#FF4D00"/>
<path d="M118.5 2.53744e-05C147.59 2.41028e-05 175.649 10.7762 197.261 30.2484C218.872 49.7206 232.505 76.5084 235.526 105.441C238.548 134.374 230.744 163.4 213.622 186.918C196.5 210.435 171.273 226.776 142.811 232.786C114.348 238.797 84.6683 234.05 59.4997 219.464C34.3311 204.877 15.4583 181.484 6.52406 153.799C-2.41016 126.115 -0.772347 96.1029 11.1214 69.5553C23.0151 43.0078 44.3214 21.8072 70.9279 10.0458L94.9242 64.3298C81.7385 70.1585 71.1795 80.6651 65.2852 93.8215C59.3909 106.978 58.5792 121.852 63.0069 135.571C67.4345 149.291 76.7875 160.884 89.2606 168.113C101.734 175.342 116.442 177.694 130.548 174.716C144.653 171.737 157.155 163.639 165.641 151.984C174.126 140.329 177.993 125.944 176.496 111.606C174.998 97.2674 168.243 83.9918 157.532 74.3418C146.822 64.6917 132.916 59.3513 118.5 59.3513L118.5 2.53744e-05Z" fill="#00FF47"/>
</svg>
