<svg width="185" height="40" viewBox="0 0 185 40" fill="none" xmlns="http://www.w3.org/2000/svg">
<path d="M66.9785 31H62.877V22.4688H54.8789V31H50.7773V11.0938H54.8789V19.1602H62.877V11.0938H66.9785V31ZM86.9258 21.498C86.9258 23.4577 86.5794 25.1758 85.8867 26.6523C85.194 28.1289 84.2005 29.2682 82.9062 30.0703C81.6211 30.8724 80.1445 31.2734 78.4766 31.2734C76.8268 31.2734 75.3548 30.877 74.0605 30.084C72.7663 29.291 71.7637 28.1608 71.0527 26.6934C70.3418 25.2168 69.9818 23.5215 69.9727 21.6074V20.623C69.9727 18.6634 70.3236 16.9408 71.0254 15.4551C71.7363 13.9603 72.7344 12.8164 74.0195 12.0234C75.3138 11.2214 76.7904 10.8203 78.4492 10.8203C80.1081 10.8203 81.5801 11.2214 82.8652 12.0234C84.1595 12.8164 85.1576 13.9603 85.8594 15.4551C86.5703 16.9408 86.9258 18.6589 86.9258 20.6094V21.498ZM82.7695 20.5957C82.7695 18.5085 82.3958 16.9225 81.6484 15.8379C80.901 14.7533 79.8346 14.2109 78.4492 14.2109C77.0729 14.2109 76.0111 14.7487 75.2637 15.8242C74.5163 16.8906 74.138 18.4583 74.1289 20.5273V21.498C74.1289 23.5306 74.5026 25.1074 75.25 26.2285C75.9974 27.3496 77.0729 27.9102 78.4766 27.9102C79.8529 27.9102 80.9102 27.3724 81.6484 26.2969C82.3867 25.2122 82.7604 23.6354 82.7695 21.5664V20.5957ZM103.715 14.416H97.6172V31H93.5156V14.416H87.5V11.0938H103.715V14.416ZM122.254 31H118.152L110.168 17.9023V31H106.066V11.0938H110.168L118.166 24.2188V11.0938H122.254V31ZM137.812 22.373H129.938V27.7051H139.18V31H125.836V11.0938H139.152V14.416H129.938V19.1602H137.812V22.373ZM157.09 25.2578L159.77 11.0938H163.857L159.441 31H155.312L152.072 17.6836L148.832 31H144.703L140.287 11.0938H144.375L147.068 25.2305L150.35 11.0938H153.822L157.09 25.2578ZM176.408 25.7773C176.408 25.0026 176.135 24.4102 175.588 24C175.041 23.5807 174.057 23.1432 172.635 22.6875C171.213 22.2227 170.087 21.7669 169.258 21.3203C166.997 20.099 165.867 18.4538 165.867 16.3848C165.867 15.3092 166.168 14.3522 166.77 13.5137C167.38 12.666 168.251 12.0052 169.381 11.5312C170.52 11.0573 171.796 10.8203 173.209 10.8203C174.631 10.8203 175.898 11.0801 177.01 11.5996C178.122 12.11 178.983 12.8346 179.594 13.7734C180.214 14.7122 180.523 15.7786 180.523 16.9727H176.422C176.422 16.0612 176.135 15.3548 175.561 14.8535C174.986 14.3431 174.18 14.0879 173.141 14.0879C172.138 14.0879 171.359 14.3021 170.803 14.7305C170.247 15.1497 169.969 15.7057 169.969 16.3984C169.969 17.0456 170.292 17.5879 170.939 18.0254C171.596 18.4629 172.557 18.873 173.824 19.2559C176.158 19.9577 177.857 20.8281 178.924 21.8672C179.99 22.9062 180.523 24.2005 180.523 25.75C180.523 27.4727 179.872 28.8262 178.568 29.8105C177.265 30.7858 175.51 31.2734 173.305 31.2734C171.773 31.2734 170.379 30.9954 169.121 30.4395C167.863 29.8743 166.902 29.1042 166.236 28.1289C165.58 27.1536 165.252 26.0234 165.252 24.7383H169.367C169.367 26.9349 170.68 28.0332 173.305 28.0332C174.28 28.0332 175.041 27.8372 175.588 27.4453C176.135 27.0443 176.408 26.4883 176.408 25.7773Z" fill="white"/>
<g clip-path="url(#clip0)">
<path d="M3.32095 19.5224C3.64688 19.5911 4.95273 18.5138 6.78531 14.8108C6.9083 14.5563 7.17288 14.4012 7.45517 14.4186C8.03623 14.5157 8.56174 14.8215 8.93375 15.2786C9.97898 16.3669 11.3968 17.0194 12.9032 17.1057C11.2616 14.79 11.3364 12.9211 11.9175 11.5637L11.9016 11.5591C10.2384 11.1438 8.48117 11.3394 6.95011 12.1106C6.85825 12.1518 6.75846 12.1732 6.65775 12.1732C6.07913 12.1732 5.94181 11.7294 5.66715 10.8459L5.6116 10.6689C5.46695 10.2234 5.34213 9.81903 5.23227 9.40796C5.01987 8.66791 4.87399 7.91016 4.79678 7.14386C4.60056 5.85022 4.87583 4.52942 5.57224 3.42194C5.58658 3.40179 5.60123 3.38226 5.6171 3.36395C6.29428 2.60162 7.12436 1.99036 8.05332 1.57013C8.43174 1.41602 8.66794 1.03607 8.63865 0.628662C8.61148 0.447083 8.56266 0.122375 7.48783 0.00457764C7.45822 0.00183105 7.42771 0 7.39688 0C7.19394 0.00427246 6.99436 0.0546265 6.81339 0.147705C4.74918 1.07971 3.27091 2.96173 2.85434 5.18799C2.5748 6.70441 2.57358 8.66699 4.48398 12.5357C4.6387 12.8488 4.5441 13.2282 4.26029 13.432C3.62827 13.891 3.05911 14.4308 2.56747 15.0378C2.57236 19.1458 3.31363 19.5206 3.32095 19.5224Z" fill="#FF4D00"/>
<path d="M6.80089 30.8346C12.1198 35.7595 17.663 38.7337 23.2764 39.6755C25.0018 39.9672 26.7545 40.0628 28.5013 39.9602C31.9192 39.7152 35.2548 38.7951 38.3148 37.253C39.0338 36.8584 39.1281 36.6173 39.1342 36.5996C39.1287 36.5996 39.0576 36.4156 38.5202 36.0967C36.8814 35.3988 34.2157 35.5239 32.0706 35.7128C31.7859 35.7354 31.5143 35.5883 31.3779 35.3371C30.0921 32.9223 26.9095 31.4516 24.2804 30.4394C24.0445 30.3484 23.8742 30.1397 23.8324 29.8904C22.4817 21.7977 18.4809 14.9731 13.3908 12.0797C13.357 12.0596 13.3115 12.0413 13.2733 12.0221C12.5403 13.5891 13.0814 15.3445 14.9402 17.3709C15.1264 17.5741 15.1776 17.8671 15.0717 18.1213C14.9655 18.3758 14.7214 18.5455 14.4458 18.5562C10.5124 18.706 8.91606 17.2055 7.96361 16.3082C7.89006 16.2387 7.80644 16.1602 7.72496 16.0867C6.05229 19.3087 4.57403 20.9368 3.32159 20.9368C3.21142 20.9368 3.10156 20.924 2.99444 20.8987C2.00476 20.6637 1.44018 19.5083 1.23755 17.2369C0.313478 19.2721 0.316835 21.6082 1.24731 23.6407C2.6145 26.3763 4.50048 28.8195 6.80089 30.8346ZM16.2824 34.8885C16.3663 34.7185 16.514 34.5888 16.6934 34.5281C16.8732 34.4674 17.0694 34.4805 17.2391 34.5647C18.7757 35.3304 20.3894 35.9298 22.0535 36.3521C22.403 36.4397 22.6325 36.7739 22.5888 37.1316C22.5452 37.4892 22.2418 37.7584 21.8814 37.7593C21.8231 37.7593 21.7648 37.752 21.7081 37.7376C19.9448 37.2909 18.2346 36.6564 16.6068 35.8449C16.2531 35.6704 16.1078 35.2422 16.2821 34.8885H16.2824ZM6.26714 26.8697C6.40599 26.7407 6.59032 26.672 6.77953 26.6787C6.96904 26.6857 7.14757 26.7678 7.27666 26.9067C9.12632 28.8808 11.1679 30.6658 13.3716 32.2353C13.6927 32.4645 13.7674 32.9107 13.5379 33.2317C13.3087 33.5528 12.8626 33.6272 12.5415 33.398C10.2597 31.7727 8.14549 29.9236 6.23021 27.8787C5.96196 27.5897 5.97844 27.1383 6.26714 26.8697Z" fill="#FF4D00"/>
<path d="M27.5635 27.1359C27.7389 27.3623 27.9321 27.5751 28.1406 27.7716C31.1435 27.5155 34.6133 25.6799 35.6137 22.5686C36.2903 20.4825 36.3077 18.1399 36.3238 15.8746C36.3278 15.3445 36.3318 14.8181 36.344 14.2996C36.4102 11.2655 37.5272 8.34837 39.5041 6.04582C37.8104 6.21 36.4612 6.58262 34.8328 8.78996C33.1097 11.1246 30.9174 11.5933 29.4427 11.2561C28.1711 11.0122 27.171 10.0274 26.907 8.76005C26.644 7.35014 27.3682 5.83342 28.9163 4.47996C24.7046 3.07432 20.914 3.04075 18.143 4.40458C16.4917 5.19072 15.2042 6.57896 14.5444 8.28459L14.5633 8.29283C14.577 8.29863 14.5901 8.30534 14.6042 8.31083C14.8563 8.41429 15.1013 8.53422 15.3378 8.66972C15.7147 8.88548 16.077 9.11558 16.4307 9.35118C16.4709 9.37834 16.5152 9.40184 16.5552 9.429C17.7066 8.30381 19.3875 7.91105 20.9183 8.40971C21.1462 8.47777 21.3257 8.65446 21.3965 8.88182C21.4676 9.10887 21.4206 9.35637 21.2717 9.54191C21.1188 9.73204 20.9619 9.92033 20.8063 10.1074C20.2844 10.6482 19.8587 11.2741 19.5474 11.9583C19.5807 11.994 19.6127 12.0297 19.6432 12.0654C19.9374 12.3565 20.2469 12.6904 20.5252 13.0173C20.6253 13.1347 20.723 13.2528 20.8185 13.3719C20.8359 13.3932 20.8539 13.4173 20.8716 13.4433L20.9457 13.4582C21.1346 13.5031 21.3263 13.5351 21.5195 13.5534C21.918 13.5827 22.3178 13.5849 22.7167 13.5608C23.9026 13.4241 25.1013 13.4414 26.2826 13.6127C27.1902 13.7845 28.0844 14.0195 28.9587 14.3161L29.0839 14.3576C29.8395 14.7186 30.693 14.8221 31.5134 14.6518C32.345 14.3127 33.0832 13.7799 33.6667 13.0972C33.6777 13.0856 33.6893 13.0746 33.7012 13.0639L33.7241 13.0395C33.9255 12.8381 34.2276 12.7759 34.4925 12.8805C34.7571 12.9855 34.9344 13.2379 34.9432 13.5226C35.0107 15.7065 34.469 17.2867 33.2867 18.3542C31.8225 19.6756 29.4678 20.097 26.0916 19.6457C25.7709 19.595 25.4428 19.6661 25.1718 19.8453C25.0891 19.906 25.0159 19.9786 24.9545 20.0607L24.9347 20.087C25.112 20.4797 25.2817 20.87 25.4434 21.2643C25.5414 21.5051 25.6366 21.7468 25.7291 21.9894C25.7635 22.0794 25.7931 22.1719 25.8218 22.2647C25.9689 22.2711 26.116 22.2696 26.2628 22.2598C27.612 22.0968 28.93 21.7377 30.1752 21.1935L30.3339 21.1337C30.5865 21.0385 30.8713 21.0937 31.0696 21.2765C31.2683 21.4593 31.347 21.7383 31.2729 21.998C30.4617 24.841 29.4006 26.3302 27.5635 27.1359Z" fill="#FF4D00"/>
</g>
<defs>
<clipPath id="clip0">
<rect width="40" height="40" fill="white"/>
</clipPath>
</defs>
</svg>
