<svg width="70" height="70" viewBox="0 0 70 70" fill="none" xmlns="http://www.w3.org/2000/svg">
<circle cx="35" cy="35" r="33.5" fill="#FFEDC0" stroke="#FFBA00" stroke-width="3"/>
<path d="M21.1116 36.469C21.7079 37.8787 22.561 39.1442 23.6473 40.2305C24.7336 41.3168 25.9991 42.1699 27.4088 42.7661C28.8694 43.3839 30.4196 43.6972 32.0165 43.6972C33.6134 43.6972 35.1637 43.384 36.6243 42.7661C36.8691 42.6626 37.1092 42.5509 37.345 42.4319L43.9767 49.0637C44.5642 49.6511 45.3453 49.9746 46.1761 49.9746C47.0067 49.9746 47.7878 49.6511 48.3753 49.0637L48.9099 48.5291C50.1226 47.3164 50.1226 45.3433 48.91 44.1306L42.3734 37.594C42.5748 37.2302 42.7582 36.8552 42.9216 36.4689C43.5393 35.0084 43.8525 33.4581 43.8525 31.8612C43.8525 30.2643 43.5393 28.714 42.9216 27.2534C42.3253 25.8438 41.4722 24.5782 40.3858 23.4919C39.2996 22.4056 38.034 21.5525 36.6243 20.9563C35.1637 20.3386 33.6135 20.0253 32.0166 20.0253C30.4198 20.0253 28.8694 20.3386 27.4089 20.9564C25.9992 21.5526 24.7337 22.4057 23.6474 23.492C22.5611 24.5783 21.708 25.8439 21.1118 27.2535C20.494 28.7141 20.1807 30.2644 20.1807 31.8612C20.1807 33.4581 20.4939 35.0084 21.1116 36.469ZM39.5868 37.8739C39.0369 38.5653 38.3942 39.1796 37.6777 39.6981C37.0711 40.137 36.4116 40.5072 35.7105 40.7974C34.5723 41.2684 33.325 41.5288 32.0166 41.5288C26.6774 41.5288 22.349 37.2005 22.349 31.8612C22.349 26.5219 26.6774 22.1937 32.0166 22.1937C37.3558 22.1937 41.6842 26.522 41.6842 31.8613C41.6842 33.3359 41.3535 34.7332 40.763 35.9837C40.4434 36.6605 40.0478 37.2943 39.5868 37.8739ZM47.3767 45.6638C47.7446 46.0317 47.7446 46.6281 47.3767 46.9959L46.8421 47.5304C46.6583 47.7144 46.4172 47.8063 46.1762 47.8063C45.935 47.8063 45.694 47.7143 45.5101 47.5304L39.2274 41.2478C39.6329 40.9355 40.0198 40.5966 40.3859 40.2305C40.6472 39.9692 40.8946 39.6973 41.1286 39.4157L47.3767 45.6638Z" fill="#181818"/>
<path d="M46.176 50C45.3385 50 44.551 49.6738 43.9587 49.0816L37.3401 42.4628C37.105 42.5809 36.8676 42.6907 36.6341 42.7895C35.1705 43.4086 33.6169 43.7225 32.0165 43.7225C30.4163 43.7225 28.8628 43.4086 27.399 42.7895C25.9864 42.192 24.7181 41.3371 23.6294 40.2484C22.5408 39.1598 21.6858 37.8915 21.0883 36.4788C20.4693 35.0152 20.1554 33.4616 20.1554 31.8612C20.1554 30.261 20.4693 28.7075 21.0884 27.2437C21.6859 25.831 22.5408 24.5627 23.6295 23.4741C24.7181 22.3855 25.9864 21.5305 27.399 20.933C28.8628 20.3139 30.4163 20 32.0166 20C33.6168 20 35.1704 20.3139 36.6342 20.933C38.047 21.5305 39.3152 22.3855 40.4038 23.4741C41.4923 24.5625 42.3472 25.8309 42.9449 27.2437C43.5639 28.7073 43.8779 30.2609 43.8779 31.8612C43.8779 33.4616 43.564 35.0152 42.9449 36.4788C42.7862 36.8539 42.6045 37.2274 42.4048 37.5895L48.9279 44.1127C50.1503 45.3353 50.1503 47.3245 48.9278 48.547L48.3932 49.0816C47.801 49.6738 47.0135 50 46.176 50ZM37.3499 42.4011L43.9946 49.0458C44.5773 49.6285 45.352 49.9494 46.1761 49.9494C47 49.9494 47.7748 49.6285 48.3575 49.0458L48.892 48.5113C50.0949 47.3084 50.0949 45.3513 48.8921 44.1485L42.342 37.5984L42.3513 37.5817C42.5538 37.216 42.7379 36.8383 42.8983 36.4591C43.5147 35.0017 43.8272 33.4548 43.8272 31.8612C43.8272 30.2677 43.5147 28.7207 42.8983 27.2634C42.3032 25.8566 41.4519 24.5937 40.368 23.5099C39.2841 22.4259 38.0212 21.5746 36.6145 20.9796C35.1569 20.3632 33.61 20.0506 32.0166 20.0506C30.4232 20.0506 28.8762 20.3632 27.4188 20.9797C26.0121 21.5746 24.7493 22.4259 23.6652 23.5099C22.5813 24.5939 21.73 25.8568 21.135 27.2634C20.5186 28.7209 20.206 30.2679 20.206 31.8613C20.206 33.4548 20.5186 35.0018 21.1349 36.4592C21.7299 37.8657 22.5812 39.1286 23.6652 40.2126C24.7492 41.2966 26.0121 42.1479 27.4187 42.7428C28.8762 43.3593 30.4232 43.6719 32.0166 43.6719C33.6101 43.6719 35.1571 43.3593 36.6144 42.7428C36.8523 42.6423 37.0942 42.5301 37.3336 42.4094L37.3499 42.4011ZM46.1761 47.8316C45.9178 47.8316 45.6749 47.731 45.4921 47.5483L39.1891 41.2453L39.2119 41.2277C39.6187 40.9145 40.0076 40.5729 40.368 40.2126C40.625 39.9555 40.8744 39.6819 41.1091 39.3996L41.1269 39.3782L47.3946 45.6459C47.7717 46.023 47.7717 46.6366 47.3946 47.0138L46.86 47.5483C46.6774 47.731 46.4346 47.8316 46.1761 47.8316ZM39.2656 41.2503L45.528 47.5126C45.7012 47.6857 45.9314 47.781 46.1762 47.781C46.4211 47.781 46.6513 47.6857 46.8243 47.5126L47.3589 46.978C47.7163 46.6206 47.7163 46.0391 47.3589 45.6817L41.1303 39.4533C40.8998 39.7293 40.6555 39.9966 40.4038 40.2484C40.0486 40.6036 39.6658 40.9406 39.2656 41.2503ZM32.0166 41.5541C26.6719 41.5541 22.3236 37.2059 22.3236 31.8612C22.3236 26.5166 26.6719 22.1684 32.0165 22.1684C37.3612 22.1684 41.7094 26.5166 41.7094 31.8613C41.7094 33.306 41.3986 34.6966 40.7858 35.9946C40.4678 36.6681 40.071 37.3057 39.6066 37.8897C39.0548 38.5834 38.4108 39.1987 37.6924 39.7186C37.0798 40.162 36.4162 40.5328 35.7201 40.8208C34.5442 41.3074 33.2982 41.5541 32.0166 41.5541ZM32.0166 22.219C26.6998 22.219 22.3743 26.5444 22.3743 31.8612C22.3743 37.1779 26.6998 41.5035 32.0166 41.5035C33.2915 41.5035 34.5311 41.258 35.7008 40.7739C36.3933 40.4875 37.0534 40.1186 37.6629 39.6775C38.3775 39.1604 39.0181 38.5482 39.567 37.8581C40.0291 37.2771 40.4238 36.6429 40.7402 35.9728C41.3498 34.6818 41.6589 33.2984 41.6589 31.8612C41.6588 26.5445 37.3333 22.219 32.0166 22.219Z" fill="#181818"/>
<path d="M36.4692 30.7771H33.1007V27.4086C33.1007 26.8098 32.6153 26.3244 32.0166 26.3244C31.4178 26.3244 30.9324 26.8098 30.9324 27.4086V30.7771H27.5639C26.9651 30.7771 26.4797 31.2625 26.4797 31.8613C26.4797 32.4601 26.9651 32.9455 27.5639 32.9455H30.9324V36.3139C30.9324 36.9127 31.4178 37.3981 32.0166 37.3981C32.1071 37.3981 32.195 37.3868 32.2791 37.366C32.751 37.2486 33.1008 36.8222 33.1008 36.3139V33.2216V32.9454H33.3774H36.4693C36.8123 32.9454 37.118 32.7859 37.3166 32.5372C37.4648 32.3518 37.5534 32.117 37.5534 31.8613C37.5534 31.2625 37.0681 30.7771 36.4692 30.7771Z" fill="#181818"/>
<path d="M32.0166 37.4234C31.4048 37.4234 30.9071 36.9257 30.9071 36.3139V32.9707H27.5639C26.9521 32.9707 26.4544 32.473 26.4544 31.8612C26.4544 31.2494 26.9521 30.7518 27.5639 30.7518H30.9071V27.4085C30.9071 26.7967 31.4048 26.299 32.0165 26.299C32.6283 26.299 33.126 26.7967 33.126 27.4085V30.7517H36.4692C37.081 30.7517 37.5787 31.2494 37.5787 31.8612C37.5787 32.1154 37.4949 32.3546 37.3363 32.5529C37.1243 32.8184 36.8083 32.9706 36.4692 32.9706H33.126V36.3138C33.126 36.8245 32.7802 37.2673 32.2851 37.3905C32.1972 37.4123 32.1069 37.4234 32.0166 37.4234ZM27.5639 30.8024C26.98 30.8024 26.505 31.2774 26.505 31.8612C26.505 32.4451 26.98 32.9201 27.5639 32.9201H30.9577V36.3139C30.9577 36.8977 31.4328 37.3728 32.0166 37.3728C32.1027 37.3728 32.189 37.3622 32.2729 37.3414C32.7455 37.2239 33.0755 36.8013 33.0755 36.3139V32.9201H36.4693C36.7928 32.9201 37.0945 32.7747 37.2968 32.5214C37.4481 32.3321 37.5281 32.1038 37.5281 31.8612C37.5281 31.2774 37.0531 30.8024 36.4693 30.8024H33.0755V27.4086C33.0755 26.8247 32.6004 26.3497 32.0166 26.3497C31.4327 26.3497 30.9577 26.8247 30.9577 27.4086V30.8024H27.5639V30.8024Z" fill="#181818"/>
</svg>
