<svg width="70" height="63" viewBox="0 0 70 63" fill="none" xmlns="http://www.w3.org/2000/svg">
<g clip-path="url(#clip0)">
<path d="M70 57.5C70 59.125 69.4235 60.3646 68.2704 61.2188C67.1174 62.0729 65.7023 62.5 64.0252 62.5H5.97484C4.29769 62.5 2.8826 62.0625 1.72956 61.1875C0.57652 60.3125 0 59.0833 0 57.5C0 56.25 0.377358 54.9792 1.13208 53.6875L30.1258 3.4375C31.5094 1.14583 33.1447 0 35.0314 0C36.9182 0 38.5115 1.14583 39.8113 3.4375L68.8679 53.75C69.6226 55.0833 70 56.3333 70 57.5ZM39.3711 25.5625V16.4375H30.6289V25.5625C30.6289 26.1458 30.6709 26.6979 30.7547 27.2188C30.8386 27.7396 30.9539 28.3229 31.1006 28.9688C31.2474 29.6146 31.3627 30.1667 31.4465 30.625L33.0818 40.75H36.7925L38.4906 30.625C38.5744 30.2083 38.7002 29.6667 38.8679 29C39.0356 28.3333 39.1614 27.7396 39.2453 27.2188C39.3291 26.6979 39.3711 26.1458 39.3711 25.5625ZM39.3711 49.75C39.3711 48.5417 38.9413 47.5208 38.0818 46.6875C37.2222 45.8542 36.1845 45.4375 34.9686 45.4375C33.7946 45.4375 32.7778 45.8542 31.9182 46.6875C31.0587 47.5208 30.6289 48.5417 30.6289 49.75C30.6289 50.9583 31.0587 51.9896 31.9182 52.8438C32.7778 53.6979 33.7946 54.125 34.9686 54.125C36.1845 54.125 37.2222 53.6979 38.0818 52.8438C38.9413 51.9896 39.3711 50.9583 39.3711 49.75Z" fill="#FFBA00"/>
</g>
<defs>
<clipPath id="clip0">
<rect width="70" height="62.5" fill="white"/>
</clipPath>
</defs>
</svg>
