<svg width="113" height="427" viewBox="0 0 113 427" fill="none" xmlns="http://www.w3.org/2000/svg">
<path d="M60.1074 26H46.2168V22.9922L52.6152 16.2656C54.1921 14.4701 54.9805 13.0436 54.9805 11.9863C54.9805 11.1296 54.7936 10.4779 54.4199 10.0312C54.0462 9.58464 53.5039 9.36133 52.793 9.36133C52.0911 9.36133 51.5215 9.66211 51.084 10.2637C50.6465 10.8561 50.4277 11.599 50.4277 12.4922H45.8066C45.8066 11.2708 46.112 10.1452 46.7227 9.11523C47.3333 8.07617 48.181 7.26497 49.2656 6.68164C50.3503 6.09831 51.5625 5.80664 52.9023 5.80664C55.0534 5.80664 56.7077 6.30339 57.8652 7.29688C59.0319 8.29036 59.6152 9.7168 59.6152 11.5762C59.6152 12.36 59.4694 13.1257 59.1777 13.873C58.8861 14.6113 58.4303 15.3906 57.8105 16.2109C57.1999 17.0221 56.2109 18.1113 54.8438 19.4785L52.2734 22.4453H60.1074V26ZM76.2539 17.8652C76.2539 20.554 75.6478 22.6276 74.4355 24.0859C73.2324 25.5443 71.5326 26.2734 69.3359 26.2734C67.1211 26.2734 65.4076 25.5397 64.1953 24.0723C62.9831 22.6048 62.377 20.5358 62.377 17.8652V14.2285C62.377 11.5397 62.9785 9.46615 64.1816 8.00781C65.3939 6.54948 67.1029 5.82031 69.3086 5.82031C71.5143 5.82031 73.2233 6.55404 74.4355 8.02148C75.6478 9.48893 76.2539 11.5625 76.2539 14.2422V17.8652ZM71.6465 13.6406C71.6465 12.2096 71.4596 11.1432 71.0859 10.4414C70.7122 9.73047 70.1198 9.375 69.3086 9.375C68.5156 9.375 67.9368 9.70312 67.5723 10.3594C67.2168 11.0156 67.0254 12.0091 66.998 13.3398V18.4258C66.998 19.9115 67.1849 21.0007 67.5586 21.6934C67.9323 22.377 68.5247 22.7188 69.3359 22.7188C70.1198 22.7188 70.6986 22.3861 71.0723 21.7207C71.446 21.0462 71.6374 19.9935 71.6465 18.5625V13.6406ZM91.2148 22.6299C91.1829 23.3226 90.9961 23.9355 90.6543 24.4688C90.3125 24.9974 89.8317 25.4076 89.2119 25.6992C88.5967 25.9909 87.8926 26.1367 87.0996 26.1367C85.7917 26.1367 84.7617 25.7106 84.0098 24.8584C83.2578 24.0062 82.8818 22.8031 82.8818 21.249V20.7568C82.8818 19.7816 83.0505 18.9294 83.3877 18.2002C83.7295 17.4665 84.2194 16.9014 84.8574 16.5049C85.4954 16.1038 86.2337 15.9033 87.0723 15.9033C88.2799 15.9033 89.2507 16.2223 89.9844 16.8604C90.7181 17.4938 91.1351 18.3688 91.2354 19.4854H88.8428C88.8245 18.8792 88.6719 18.444 88.3848 18.1797C88.0977 17.9154 87.6602 17.7832 87.0723 17.7832C86.4753 17.7832 86.0378 18.0065 85.7598 18.4531C85.4818 18.8997 85.3359 19.613 85.3223 20.5928V21.2969C85.3223 22.3587 85.4544 23.1175 85.7188 23.5732C85.9876 24.029 86.4479 24.2568 87.0996 24.2568C87.651 24.2568 88.0726 24.127 88.3643 23.8672C88.6559 23.6074 88.8109 23.195 88.8291 22.6299H91.2148ZM95.501 16.0469L97.7227 22.9717L99.9375 16.0469H103.096V26H100.689V23.6758L100.922 18.918L98.5156 26H96.9297L94.5166 18.9111L94.749 23.6758V26H92.3496V16.0469H95.501Z" fill="white"/>
<path d="M56.4297 225H51.8086V210.289L47.2695 211.615V208.115L56.0059 205.094H56.4297V225ZM76.2539 216.865C76.2539 219.554 75.6478 221.628 74.4355 223.086C73.2324 224.544 71.5326 225.273 69.3359 225.273C67.1211 225.273 65.4076 224.54 64.1953 223.072C62.9831 221.605 62.377 219.536 62.377 216.865V213.229C62.377 210.54 62.9785 208.466 64.1816 207.008C65.3939 205.549 67.1029 204.82 69.3086 204.82C71.5143 204.82 73.2233 205.554 74.4355 207.021C75.6478 208.489 76.2539 210.562 76.2539 213.242V216.865ZM71.6465 212.641C71.6465 211.21 71.4596 210.143 71.0859 209.441C70.7122 208.73 70.1198 208.375 69.3086 208.375C68.5156 208.375 67.9368 208.703 67.5723 209.359C67.2168 210.016 67.0254 211.009 66.998 212.34V217.426C66.998 218.911 67.1849 220.001 67.5586 220.693C67.9323 221.377 68.5247 221.719 69.3359 221.719C70.1198 221.719 70.6986 221.386 71.0723 220.721C71.446 220.046 71.6374 218.993 71.6465 217.562V212.641ZM91.2148 221.63C91.1829 222.323 90.9961 222.936 90.6543 223.469C90.3125 223.997 89.8317 224.408 89.2119 224.699C88.5967 224.991 87.8926 225.137 87.0996 225.137C85.7917 225.137 84.7617 224.711 84.0098 223.858C83.2578 223.006 82.8818 221.803 82.8818 220.249V219.757C82.8818 218.782 83.0505 217.929 83.3877 217.2C83.7295 216.466 84.2194 215.901 84.8574 215.505C85.4954 215.104 86.2337 214.903 87.0723 214.903C88.2799 214.903 89.2507 215.222 89.9844 215.86C90.7181 216.494 91.1351 217.369 91.2354 218.485H88.8428C88.8245 217.879 88.6719 217.444 88.3848 217.18C88.0977 216.915 87.6602 216.783 87.0723 216.783C86.4753 216.783 86.0378 217.007 85.7598 217.453C85.4818 217.9 85.3359 218.613 85.3223 219.593V220.297C85.3223 221.359 85.4544 222.118 85.7188 222.573C85.9876 223.029 86.4479 223.257 87.0996 223.257C87.651 223.257 88.0726 223.127 88.3643 222.867C88.6559 222.607 88.8109 222.195 88.8291 221.63H91.2148ZM95.501 215.047L97.7227 221.972L99.9375 215.047H103.096V225H100.689V222.676L100.922 217.918L98.5156 225H96.9297L94.5166 217.911L94.749 222.676V225H92.3496V215.047H95.501Z" fill="white"/>
<path d="M32.1191 123H30.3027V110.959L26.6602 112.297V110.656L31.8359 108.713H32.1191V123ZM38.2422 115.871L38.9648 108.781H46.25V110.451H40.498L40.0684 114.328C40.765 113.918 41.556 113.713 42.4414 113.713C43.737 113.713 44.7656 114.143 45.5273 115.002C46.2891 115.855 46.6699 117.01 46.6699 118.469C46.6699 119.934 46.2728 121.089 45.4785 121.936C44.6908 122.775 43.5872 123.195 42.168 123.195C40.9115 123.195 39.8861 122.847 39.0918 122.15C38.2975 121.454 37.8451 120.49 37.7344 119.26H39.4434C39.554 120.074 39.8438 120.689 40.3125 121.105C40.7812 121.516 41.3997 121.721 42.168 121.721C43.0078 121.721 43.6654 121.434 44.1406 120.861C44.6224 120.288 44.8633 119.497 44.8633 118.488C44.8633 117.538 44.6029 116.776 44.082 116.203C43.5677 115.624 42.8809 115.334 42.0215 115.334C41.2337 115.334 40.6152 115.507 40.166 115.852L39.6875 116.242L38.2422 115.871ZM60.8984 119.842C60.7754 120.895 60.3857 121.708 59.7295 122.282C59.0778 122.852 58.2096 123.137 57.125 123.137C55.9492 123.137 55.0059 122.715 54.2949 121.872C53.5885 121.029 53.2354 119.901 53.2354 118.488V117.531C53.2354 116.606 53.3994 115.793 53.7275 115.091C54.0602 114.389 54.5296 113.851 55.1357 113.478C55.7419 113.099 56.4437 112.91 57.2412 112.91C58.2985 112.91 59.1462 113.206 59.7842 113.799C60.4222 114.387 60.7936 115.202 60.8984 116.246H59.5791C59.4652 115.453 59.2168 114.879 58.834 114.523C58.4557 114.168 57.9248 113.99 57.2412 113.99C56.4027 113.99 55.7441 114.3 55.2656 114.92C54.7917 115.54 54.5547 116.422 54.5547 117.565V118.529C54.5547 119.609 54.7803 120.468 55.2314 121.106C55.6826 121.744 56.3138 122.063 57.125 122.063C57.8542 122.063 58.4124 121.899 58.7998 121.571C59.1917 121.239 59.4515 120.662 59.5791 119.842H60.8984ZM64.3916 113.047L67.6455 121.168L70.8994 113.047H72.6016V123H71.2891V119.124L71.4121 114.94L68.1445 123H67.1396L63.8789 114.961L64.0088 119.124V123H62.6963V113.047H64.3916Z" fill="white"/>
<path d="M60.0391 417.865C60.0391 420.554 59.4329 422.628 58.2207 424.086C57.0176 425.544 55.3177 426.273 53.1211 426.273C50.9062 426.273 49.1927 425.54 47.9805 424.072C46.7682 422.605 46.1621 420.536 46.1621 417.865V414.229C46.1621 411.54 46.7637 409.466 47.9668 408.008C49.179 406.549 50.888 405.82 53.0938 405.82C55.2995 405.82 57.0085 406.554 58.2207 408.021C59.4329 409.489 60.0391 411.562 60.0391 414.242V417.865ZM55.4316 413.641C55.4316 412.21 55.2448 411.143 54.8711 410.441C54.4974 409.73 53.9049 409.375 53.0938 409.375C52.3008 409.375 51.722 409.703 51.3574 410.359C51.002 411.016 50.8105 412.009 50.7832 413.34V418.426C50.7832 419.911 50.9701 421.001 51.3438 421.693C51.7174 422.377 52.3099 422.719 53.1211 422.719C53.9049 422.719 54.4837 422.386 54.8574 421.721C55.2311 421.046 55.4225 419.993 55.4316 418.562V413.641ZM75 422.63C74.9681 423.323 74.7812 423.936 74.4395 424.469C74.0977 424.997 73.6169 425.408 72.9971 425.699C72.3818 425.991 71.6777 426.137 70.8848 426.137C69.5768 426.137 68.5469 425.711 67.7949 424.858C67.043 424.006 66.667 422.803 66.667 421.249V420.757C66.667 419.782 66.8356 418.929 67.1729 418.2C67.5146 417.466 68.0046 416.901 68.6426 416.505C69.2806 416.104 70.0189 415.903 70.8574 415.903C72.0651 415.903 73.0358 416.222 73.7695 416.86C74.5033 417.494 74.9202 418.369 75.0205 419.485H72.6279C72.6097 418.879 72.457 418.444 72.1699 418.18C71.8828 417.915 71.4453 417.783 70.8574 417.783C70.2604 417.783 69.8229 418.007 69.5449 418.453C69.2669 418.9 69.1211 419.613 69.1074 420.593V421.297C69.1074 422.359 69.2396 423.118 69.5039 423.573C69.7728 424.029 70.2331 424.257 70.8848 424.257C71.4362 424.257 71.8577 424.127 72.1494 423.867C72.4411 423.607 72.596 423.195 72.6143 422.63H75ZM79.2861 416.047L81.5078 422.972L83.7227 416.047H86.8809V426H84.4746V423.676L84.707 418.918L82.3008 426H80.7148L78.3018 418.911L78.5342 423.676V426H76.1348V416.047H79.2861Z" fill="white"/>
<path d="M27.0117 317.871L27.7344 310.781H35.0195V312.451H29.2676L28.8379 316.328C29.5345 315.918 30.3255 315.713 31.2109 315.713C32.5065 315.713 33.5352 316.143 34.2969 317.002C35.0586 317.855 35.4395 319.01 35.4395 320.469C35.4395 321.934 35.0423 323.089 34.248 323.936C33.4603 324.775 32.3568 325.195 30.9375 325.195C29.681 325.195 28.6556 324.847 27.8613 324.15C27.0671 323.454 26.6146 322.49 26.5039 321.26H28.2129C28.3236 322.074 28.6133 322.689 29.082 323.105C29.5508 323.516 30.1693 323.721 30.9375 323.721C31.7773 323.721 32.4349 323.434 32.9102 322.861C33.3919 322.288 33.6328 321.497 33.6328 320.488C33.6328 319.538 33.3724 318.776 32.8516 318.203C32.3372 317.624 31.6504 317.334 30.791 317.334C30.0033 317.334 29.3848 317.507 28.9355 317.852L28.457 318.242L27.0117 317.871ZM49.668 321.842C49.5449 322.895 49.1553 323.708 48.499 324.282C47.8473 324.852 46.9792 325.137 45.8945 325.137C44.7188 325.137 43.7754 324.715 43.0645 323.872C42.3581 323.029 42.0049 321.901 42.0049 320.488V319.531C42.0049 318.606 42.1689 317.793 42.4971 317.091C42.8298 316.389 43.2992 315.851 43.9053 315.478C44.5114 315.099 45.2132 314.91 46.0107 314.91C47.068 314.91 47.9157 315.206 48.5537 315.799C49.1917 316.387 49.5632 317.202 49.668 318.246H48.3486C48.2347 317.453 47.9863 316.879 47.6035 316.523C47.2253 316.168 46.6943 315.99 46.0107 315.99C45.1722 315.99 44.5137 316.3 44.0352 316.92C43.5612 317.54 43.3242 318.422 43.3242 319.565V320.529C43.3242 321.609 43.5498 322.468 44.001 323.106C44.4521 323.744 45.0833 324.063 45.8945 324.063C46.6237 324.063 47.182 323.899 47.5693 323.571C47.9613 323.239 48.221 322.662 48.3486 321.842H49.668ZM53.1611 315.047L56.415 323.168L59.6689 315.047H61.3711V325H60.0586V321.124L60.1816 316.94L56.9141 325H55.9092L52.6484 316.961L52.7783 321.124V325H51.4658V315.047H53.1611Z" fill="white"/>
<line y1="16.5" x2="35" y2="16.5" stroke="white" stroke-width="3"/>
<line y1="216.5" x2="35" y2="216.5" stroke="white" stroke-width="3"/>
<line y1="416.5" x2="35" y2="416.5" stroke="white" stroke-width="3"/>
<line y1="316.5" x2="15" y2="316.5" stroke="white" stroke-width="3"/>
<line y1="397.5" x2="15" y2="397.5" stroke="white"/>
<line y1="297.5" x2="15" y2="297.5" stroke="white"/>
<line y1="197.5" x2="15" y2="197.5" stroke="white"/>
<line y1="97.5" x2="15" y2="97.5" stroke="white"/>
<line y1="357.5" x2="15" y2="357.5" stroke="white"/>
<line y1="257.5" x2="15" y2="257.5" stroke="white"/>
<line y1="157.5" x2="15" y2="157.5" stroke="white"/>
<line y1="57.5" x2="15" y2="57.5" stroke="white"/>
<line y1="377.5" x2="15" y2="377.5" stroke="white"/>
<line y1="277.5" x2="15" y2="277.5" stroke="white"/>
<line y1="177.5" x2="15" y2="177.5" stroke="white"/>
<line y1="77.5" x2="15" y2="77.5" stroke="white"/>
<line y1="337.5" x2="15" y2="337.5" stroke="white"/>
<line y1="237.5" x2="15" y2="237.5" stroke="white"/>
<line y1="137.5" x2="15" y2="137.5" stroke="white"/>
<line y1="37.5" x2="15" y2="37.5" stroke="white"/>
<line y1="116.5" x2="15" y2="116.5" stroke="white" stroke-width="3"/>
</svg>
