<?xml version="1.0" encoding="UTF-8"?>
<!DOCTYPE svg PUBLIC "-//W3C//DTD SVG 1.1//EN" "http://www.w3.org/Graphics/SVG/1.1/DTD/svg11.dtd">
<svg xmlns="http://www.w3.org/2000/svg" version="1.1" width="1802px" height="663px" style="shape-rendering:geometricPrecision; text-rendering:geometricPrecision; image-rendering:optimizeQuality; fill-rule:evenodd; clip-rule:evenodd" xmlns:xlink="http://www.w3.org/1999/xlink">
<g><path style="opacity:1" fill="#fe6665" d="M -0.5,-0.5 C 600.167,-0.5 1200.83,-0.5 1801.5,-0.5C 1801.5,-0.166667 1801.5,0.166667 1801.5,0.5C 1741.86,12.3205 1685.86,33.4872 1633.5,64C 1546.57,120.354 1535.73,188.854 1601,269.5C 1613.3,283.467 1625.97,297.134 1639,310.5C 1662.54,336.414 1679.88,366.08 1691,399.5C 1702.43,444.171 1693.1,483.838 1663,518.5C 1637.82,544.687 1608.99,565.854 1576.5,582C 1516.2,610.1 1453.2,629.767 1387.5,641C 1307.3,655.125 1226.63,662.291 1145.5,662.5C 1142.5,662.5 1139.5,662.5 1136.5,662.5C 1018.58,661.859 902.249,647.359 787.5,619C 701.27,597.935 620.27,564.602 544.5,519C 496.821,489.665 455.654,452.832 421,408.5C 395.619,369.766 366.453,333.933 333.5,301C 308.274,276.382 279.607,256.715 247.5,242C 193.152,219.735 140.819,223.735 90.5,254C 54.3333,276.833 24.8333,306.333 2,342.5C 1.32924,343.252 0.495904,343.586 -0.5,343.5C -0.5,228.833 -0.5,114.167 -0.5,-0.5 Z"/></g>
</svg>
