<?xml version="1.0" encoding="UTF-8"?>
<!DOCTYPE svg PUBLIC "-//W3C//DTD SVG 1.1//EN" "http://www.w3.org/Graphics/SVG/1.1/DTD/svg11.dtd">
<svg xmlns="http://www.w3.org/2000/svg" version="1.1" width="1920px" height="764px" style="shape-rendering:geometricPrecision; text-rendering:geometricPrecision; image-rendering:optimizeQuality; fill-rule:evenodd; clip-rule:evenodd" xmlns:xlink="http://www.w3.org/1999/xlink">
<g><path style="opacity:1" fill="#fe6665" d="M 1189.5,-0.5 C 1205.83,-0.5 1222.17,-0.5 1238.5,-0.5C 1299.33,3.88071 1359.66,12.714 1419.5,26C 1512.95,46.929 1605.28,71.929 1696.5,101C 1771.4,124.687 1845.73,149.854 1919.5,176.5C 1919.5,372.167 1919.5,567.833 1919.5,763.5C 1279.5,763.5 639.5,763.5 -0.5,763.5C -0.5,578.833 -0.5,394.167 -0.5,209.5C 59.543,186.319 120.543,165.819 182.5,148C 207.497,140.541 232.997,136.041 259,134.5C 266.183,133.888 273.016,135.055 279.5,138C 282.997,142.128 283.83,146.628 282,151.5C 267.537,175.761 255.203,201.094 245,227.5C 215.907,314.91 246.74,366.577 337.5,382.5C 377.342,388.82 417.342,389.987 457.5,386C 541.828,377.585 624.495,360.918 705.5,336C 799.234,308.626 888.901,271.626 974.5,225C 1005.48,208.081 1033.31,186.914 1058,161.5C 1066.39,152.055 1071.55,141.055 1073.5,128.5C 1070.76,117.957 1068.59,107.291 1067,96.5C 1063.34,52.6666 1082.5,24.1666 1124.5,11C 1145.85,4.55478 1167.51,0.721451 1189.5,-0.5 Z"/></g>
</svg>
