<svg width="237" height="236" viewBox="0 0 237 236" fill="none" xmlns="http://www.w3.org/2000/svg">
<path d="M236.163 117.663C236.163 182.646 183.483 235.325 118.5 235.325C53.5167 235.325 0.837402 182.646 0.837402 117.663C0.837402 52.6793 53.5167 0 118.5 0C183.483 0 236.163 52.6793 236.163 117.663ZM60.1886 117.663C60.1886 149.867 86.2955 175.974 118.5 175.974C150.704 175.974 176.811 149.867 176.811 117.663C176.811 85.4581 150.704 59.3512 118.5 59.3512C86.2955 59.3512 60.1886 85.4581 60.1886 117.663Z" fill="#FF4D00"/>
<path d="M118.5 2.53744e-05C139.503 2.44563e-05 160.124 5.62219 178.221 16.2828C196.318 26.9434 211.232 42.2538 221.413 60.6245C231.595 78.9952 236.674 99.7564 236.122 120.753C235.57 141.749 229.409 162.215 218.276 180.026L167.947 148.569C173.464 139.742 176.518 129.599 176.791 119.194C177.065 108.789 174.548 98.4998 169.502 89.3956C164.456 80.2915 157.065 72.7039 148.097 67.4207C139.128 62.1375 128.909 59.3513 118.5 59.3513L118.5 2.53744e-05Z" fill="#00FF47"/>
</svg>
