<svg width="18" height="18" viewBox="0 0 18 18" fill="none" xmlns="http://www.w3.org/2000/svg">
<path d="M8 5V10L12.25 12.52L13.02 11.24L9.5 9.15V5H8ZM18 7V-4.70227e-07L15.36 2.64C14.5272 1.80123 13.5362 1.136 12.4445 0.682842C11.3528 0.229681 10.182 -0.00241215 9 -4.70227e-07C7.21997 -4.70227e-07 5.47991 0.52784 3.99987 1.51677C2.51983 2.50571 1.36628 3.91131 0.685088 5.55585C0.00389951 7.20038 -0.17433 9.00998 0.172937 10.7558C0.520203 12.5016 1.37737 14.1053 2.63604 15.364C3.89472 16.6226 5.49836 17.4798 7.24419 17.8271C8.99002 18.1743 10.7996 17.9961 12.4442 17.3149C14.0887 16.6337 15.4943 15.4802 16.4832 14.0001C17.4722 12.5201 18 10.78 18 9H16C16 12.86 12.86 16 9 16C5.14 16 2 12.86 2 9C2 5.14 5.14 2 9 2C10.93 2 12.68 2.79 13.95 4.05L11 7H18Z" fill="white"/>
</svg>
