<svg width="24" height="18" viewBox="0 0 24 18" fill="none" xmlns="http://www.w3.org/2000/svg">
<path fill-rule="evenodd" clip-rule="evenodd" d="M16 9C16 10.0609 15.5786 11.0783 14.8284 11.8284C14.0783 12.5786 13.0609 13 12 13C10.9391 13 9.92172 12.5786 9.17157 11.8284C8.42143 11.0783 8 10.0609 8 9C8 7.93913 8.42143 6.92172 9.17157 6.17157C9.92172 5.42143 10.9391 5 12 5C13.0609 5 14.0783 5.42143 14.8284 6.17157C15.5786 6.92172 16 7.93913 16 9ZM14 9C14 9.53043 13.7893 10.0391 13.4142 10.4142C13.0391 10.7893 12.5304 11 12 11C11.4696 11 10.9609 10.7893 10.5858 10.4142C10.2107 10.0391 10 9.53043 10 9C10 8.46957 10.2107 7.96086 10.5858 7.58579C10.9609 7.21071 11.4696 7 12 7C12.5304 7 13.0391 7.21071 13.4142 7.58579C13.7893 7.96086 14 8.46957 14 9Z" fill="white"/>
<path fill-rule="evenodd" clip-rule="evenodd" d="M12 0C17.591 0 22.29 3.824 23.622 9C22.29 14.176 17.592 18 12 18C6.40799 18 1.70999 14.176 0.377991 9C1.70999 3.824 6.40799 0 12 0ZM12 16C7.52399 16 3.73099 13.058 2.45699 9C3.73099 4.942 7.52399 2 12 2C16.476 2 20.269 4.942 21.543 9C20.269 13.058 16.476 16 12 16Z" fill="white"/>
</svg>
