<svg width="108" height="108" fill="none" xmlns="http://www.w3.org/2000/svg"><path d="M103.441 103.982c-15.099 1.674-27.073-5.012-27.192-5.08a1.762 1.762 0 00-1.34-.17c-.19.052-19.184 5.142-34.48 1.748-9.536-2.12-18.531-8.838-25.099-13.743a328.302 328.302 0 00-2.502-1.857c-1.072-.783-2.776-1.436-4.28-2.011-.674-.258-1.599-.612-1.796-.736a.692.692 0 01-.266-.559V77.48c.084-3.24 13.668-53.091 15.774-59.433.052-.075.255-.222.404-.293L49.547 5.477l8.69 11.314a1.558 1.558 0 01-.095 1.946l-8.587 9.628c-.562.63-1.508.699-2.096.209l-3.472-3.201c-.406-.375-.985-.5-1.528-.4-.544.097-1.031.485-1.282.978-.29.571-2.919 1.272-5.602 1.292l-.874-.088a1.75 1.75 0 00-1.722.9 1.767 1.767 0 00.146 1.938c.746.964 1.327 1.738 1.657 2.182L36.5 61.393c-1.066 4.15-2.042 5.328-2.285 5.564a1.767 1.767 0 00.532 3.452c2.003 0 3.706-2.633 5.072-7.772 14.05-10.512 26.311-.592 27.273.225 4.462 4.478 4.739 7.453 4.748 7.585a1.768 1.768 0 003.533-.038c0-.407-.147-3.892-4.719-8.927 4.311-5.302 9.221-8.355 14.627-9.02 9.32-1.147 17.16 5.12 17.238 5.183a1.765 1.765 0 002.234-2.735c-.364-.298-9.037-7.276-19.866-5.958-6.33.767-12.012 4.191-16.91 10.182-3.975-2.703-15.373-8.821-28.12-.82l-1.582-26.87a1.748 1.748 0 00-.256-.819c1.58-.187 3.463-.6 4.828-1.497l2.277 2.096a5.062 5.062 0 007.064-.507l8.588-9.627c1.584-1.775 1.717-4.458.287-6.416L51.491 2.21a1.768 1.768 0 00-2.135-.53L21.218 14.531c-.294.129-1.786.85-2.277 2.327-1 3.003-15.988 56.452-15.988 60.615v4.101a4.21 4.21 0 001.62 3.339c.515.404 1.284.709 2.714 1.255 1.167.447 2.765 1.059 3.455 1.563.776.568 1.603 1.185 2.475 1.836 6.824 5.097 16.17 12.076 26.447 14.36 14.63 3.251 31.805-.68 35.485-1.607 2.459 1.27 11.478 5.468 23.285 5.468 1.742 0 3.546-.091 5.398-.297a1.767 1.767 0 00-.391-3.51z" fill="#42FF23"/><path d="M94.794 82.579a1.767 1.767 0 00-3.522.194c0 1.18.87 5.175 12.073 7.042a1.766 1.766 0 10.581-3.485c-7.834-1.305-9.027-3.516-9.132-3.751zm-33.92 9.066C37.737 96.6 27.839 80.771 27.428 80.095a1.767 1.767 0 00-3.027 1.822c.117.194 2.928 4.808 8.939 8.739 4.14 2.707 10.455 5.465 18.997 5.465 2.845 0 5.937-.305 9.276-1.02a1.767 1.767 0 00-.74-3.456z" fill="#42FF23"/></svg>