<svg width="16" height="16" viewBox="0 0 16 16" fill="none" xmlns="http://www.w3.org/2000/svg">
<path d="M2.6 12.6321C1.91044 12.6321 1.24912 12.3437 0.761522 11.8304C0.273928 11.3172 0 10.621 0 9.89513V2.73695C0 2.01107 0.273928 1.31491 0.761522 0.801634C1.24912 0.288356 1.91044 0 2.6 0H13.4C13.7414 0 14.0795 0.0707933 14.395 0.208338C14.7104 0.345882 14.997 0.547485 15.2385 0.801634C15.4799 1.05578 15.6714 1.3575 15.8021 1.68956C15.9327 2.02163 16 2.37753 16 2.73695V9.89513C16 10.2545 15.9327 10.6104 15.8021 10.9425C15.6714 11.2746 15.4799 11.5763 15.2385 11.8304C14.997 12.0846 14.7104 12.2862 14.395 12.4237C14.0795 12.5613 13.7414 12.6321 13.4 12.6321H8.8096L4.8 15.7901C4.65143 15.9072 4.47484 15.9784 4.29001 15.9958C4.10517 16.0132 3.91938 15.9762 3.75341 15.8888C3.58744 15.8014 3.44785 15.6671 3.35025 15.5009C3.25266 15.3348 3.20091 15.1433 3.2008 14.948V12.6321H2.6008H2.6ZM8.4112 11.3689H13.4C13.7713 11.3689 14.1274 11.2136 14.3899 10.9372C14.6525 10.6608 14.8 10.286 14.8 9.89513V2.73695C14.8 2.34609 14.6525 1.97124 14.3899 1.69486C14.1274 1.41848 13.7713 1.26321 13.4 1.26321H2.6C2.2287 1.26321 1.8726 1.41848 1.61005 1.69486C1.3475 1.97124 1.2 2.34609 1.2 2.73695V9.89513C1.2 10.7086 1.8272 11.3689 2.6 11.3689H4.3992V14.5269L8.4112 11.3689Z" fill="#9E9E9E"/>
</svg>
