<svg width="14" height="14" viewBox="0 0 14 14" fill="none" xmlns="http://www.w3.org/2000/svg">
<path d="M6.22222 3.8889V7.77778L9.52777 9.73778L10.1267 8.74223L7.38888 7.11667V3.8889H6.22222ZM14 5.44445V1.44692e-05L11.9467 2.05334C11.2989 1.40097 10.5281 0.883572 9.67903 0.531114C8.82993 0.178656 7.91934 -0.00186128 6.99999 1.44692e-05C5.61553 1.44692e-05 4.26215 0.410557 3.11101 1.17973C1.95986 1.94889 1.06266 3.04214 0.532846 4.32122C0.00303295 5.60031 -0.13559 7.00777 0.134506 8.36564C0.404602 9.7235 1.07129 10.9708 2.05025 11.9497C3.02922 12.9287 4.2765 13.5954 5.63436 13.8655C6.99223 14.1356 8.39969 13.997 9.67877 13.4672C10.9579 12.9373 12.0511 12.0401 12.8203 10.889C13.5894 9.73785 14 8.38447 14 7.00001H12.4444C12.4444 10.0022 10.0022 12.4444 6.99999 12.4444C3.99778 12.4444 1.55556 10.0022 1.55556 7.00001C1.55556 3.99779 3.99778 1.55557 6.99999 1.55557C8.5011 1.55557 9.86221 2.17001 10.85 3.15001L8.55555 5.44445H14Z" fill="#9E9E9E"/>
</svg>
