<svg width="16" height="16" viewBox="0 0 16 16" fill="none" xmlns="http://www.w3.org/2000/svg">
<path d="M15.478 8.42229C15.814 7.99127 16 7.46318 16 6.91373C16 6.04199 15.498 5.21685 14.69 4.75671C14.482 4.63827 14.2452 4.57594 14.004 4.57615H9.208L9.328 2.19004C9.356 1.61341 9.146 1.0659 8.738 0.648479C8.53777 0.442733 8.29621 0.279035 8.02823 0.167499C7.76026 0.0559638 7.47157 -0.00103873 7.18 1.43287e-05C6.14 1.43287e-05 5.22 0.679543 4.944 1.65224L3.226 7.69034H0.64C0.286 7.69034 0 7.96797 0 8.31162V15.3787C0 15.7224 0.286 16 0.64 16H12.666C12.85 16 13.03 15.9651 13.196 15.8952C14.148 15.501 14.762 14.5982 14.762 13.5964C14.762 13.3518 14.726 13.111 14.654 12.8781C14.99 12.447 15.176 11.9189 15.176 11.3695C15.176 11.1249 15.14 10.8841 15.068 10.6511C15.404 10.2201 15.59 9.69203 15.59 9.14259C15.586 8.89796 15.55 8.65527 15.478 8.42229ZM1.44 14.6021V9.08822H3.06V14.6021H1.44ZM14.168 7.74858L13.73 8.11747L14.008 8.61061C14.0996 8.77306 14.1471 8.95546 14.146 9.14065C14.146 9.46099 14.002 9.76581 13.754 9.97549L13.316 10.3444L13.594 10.8375C13.6856 11 13.7331 11.1824 13.732 11.3676C13.732 11.6879 13.588 11.9927 13.34 12.2024L12.902 12.5713L13.18 13.0644C13.2716 13.2269 13.3191 13.4093 13.318 13.5945C13.318 14.0294 13.054 14.4216 12.646 14.6002H4.34V9.0261L6.33 2.02695C6.38131 1.84756 6.49147 1.68929 6.64377 1.57613C6.79607 1.46296 6.98221 1.40108 7.174 1.39984C7.326 1.39984 7.476 1.44256 7.596 1.52992C7.794 1.6736 7.9 1.89105 7.888 2.12209L7.696 5.97404H13.984C14.34 6.18567 14.56 6.5429 14.56 6.91373C14.56 7.23408 14.416 7.53696 14.168 7.74858Z" fill="#9E9E9E"/>
</svg>
