<svg width="16" height="18" viewBox="0 0 16 18" fill="none" xmlns="http://www.w3.org/2000/svg">
<path d="M15.76 12.912C14.7712 11.8674 13.5712 11.0338 12.2357 10.4636C10.9001 9.89342 9.45796 9.59906 8 9.59906C6.54204 9.59906 5.09988 9.89342 3.76434 10.4636C2.42881 11.0338 1.22883 11.8674 0.24 12.912C0.0873333 13.0766 0.00193371 13.2901 0 13.512V17.112C0.00323597 17.3486 0.101915 17.5744 0.274676 17.7406C0.447437 17.9068 0.680379 18 0.923077 18H15.0769C15.3217 18 15.5565 17.9052 15.7296 17.7364C15.9027 17.5676 16 17.3387 16 17.1V13.5C15.9951 13.2822 15.9099 13.0735 15.76 12.912Z" fill="white"/>
<path d="M7.99995 8.4C10.379 8.4 12.3076 6.5196 12.3076 4.2C12.3076 1.8804 10.379 0 7.99995 0C5.62088 0 3.69226 1.8804 3.69226 4.2C3.69226 6.5196 5.62088 8.4 7.99995 8.4Z" fill="white"/>
</svg>
