<svg width="18" height="18" viewBox="0 0 18 18" fill="none" xmlns="http://www.w3.org/2000/svg">
<g clip-path="url(#clip0)">
<path d="M11.6092 12.8882C10.1626 14.0119 8.34214 14.5421 6.51843 14.3707C4.69473 14.1992 3.00492 13.3392 1.79308 11.9656C0.581245 10.592 -0.0615073 8.80822 -0.00429646 6.97737C0.0529143 5.14652 0.805786 3.40631 2.10102 2.11108C3.39626 0.815842 5.13647 0.0629699 6.96731 0.00575908C8.79816 -0.0514517 10.582 0.5913 11.9556 1.80314C13.3291 3.01498 14.1892 4.70479 14.3606 6.52849C14.532 8.35219 14.0019 10.1727 12.8782 11.6192L17.6932 16.4162L16.4152 17.6942L11.6182 12.8882H11.6092ZM7.19917 12.6002C7.90831 12.6002 8.6105 12.4605 9.26566 12.1892C9.92082 11.9178 10.5161 11.52 11.0175 11.0186C11.519 10.5172 11.9167 9.92187 12.1881 9.26671C12.4595 8.61156 12.5992 7.90936 12.5992 7.20022C12.5992 6.49108 12.4595 5.78889 12.1881 5.13373C11.9167 4.47857 11.519 3.88328 11.0175 3.38185C10.5161 2.88041 9.92082 2.48265 9.26566 2.21127C8.6105 1.9399 7.90831 1.80022 7.19917 1.80022C5.767 1.80022 4.39349 2.36915 3.38079 3.38185C2.36809 4.39454 1.79917 5.76805 1.79917 7.20022C1.79917 8.63239 2.36809 10.0059 3.38079 11.0186C4.39349 12.0313 5.767 12.6002 7.19917 12.6002Z" fill="white"/>
</g>
<defs>
<clipPath id="clip0">
<rect width="18" height="18" fill="white"/>
</clipPath>
</defs>
</svg>
